<svg id="Layer_1" data-name="Layer 1" xmlns="http://www.w3.org/2000/svg" viewBox="0 0 324.71 257.95"><defs><style>.cls-1{fill:none;stroke:#fff;stroke-miterlimit:10;stroke-width:8px;}</style></defs><path class="cls-1" d="M331.86,178.62l66.6-22.46a7.58,7.58,0,0,0,4.75-9.6L399,133.93a7.57,7.57,0,0,0-9.59-4.75l-73.77,24.88-27,9.1-40.27,13.59a7.47,7.47,0,0,1-7-1.13c-26-20.15-58.93-27.73-89.65-17.36C99.57,175.85,73.59,238.43,93.7,298s78.69,93.66,130.84,76.07c20.86-7,37.52-21.28,48.73-39.64a7.55,7.55,0,0,1,13.57,1.61h0a7.57,7.57,0,0,0,9.59,4.76l12.64-4.26a7.58,7.58,0,0,0,4.75-9.6L282.25,233.4a7.56,7.56,0,0,0-9.59-4.75l-93.57,31.56a7.58,7.58,0,0,0-4.76,9.6l4.26,12.63a7.58,7.58,0,0,0,9.6,4.75l62.68-21.14a7.56,7.56,0,0,1,10,6.88c.89,34.06-16.41,64.4-45.43,74.19-37.25,12.56-79.68-13.49-94.76-58.19s2.9-91.13,40.15-103.69c25.39-8.57,53.18.8,73.08,21.8a7.55,7.55,0,0,0,7.9,2l23.79-8,24.94-8.42a7.58,7.58,0,0,1,9.59,4.76L325,271.08l34,100.75a7.56,7.56,0,0,0,9.59,4.75l12.63-4.26a7.58,7.58,0,0,0,4.76-9.59L352,262l-24.89-73.76A7.57,7.57,0,0,1,331.86,178.62Z" transform="translate(-82.9 -124.78)"/></svg>