<svg version="1.1" id="Layer_1" xmlns="http://www.w3.org/2000/svg" x="0" y="0" viewBox="0 0 252 144" style="enable-background:new 0 0 252 144" xml:space="preserve"><style>.st0{fill:#f58a78}</style><path transform="rotate(-18.648 144.137 113.266)" class="st0" d="M136.65 83.19h15.04v60.16h-15.04z"/><path class="st0" d="m122.45 25.36-14.26 4.81-42.75 14.42 4.81 14.25L113 44.42l14.43 42.75 14.25-4.8-14.43-42.76L170 25.19l-4.8-14.25z"/><path style="fill:#9477f5" d="m37.11 101.77 4.81 14.25 42.75-14.42 14.43 42.75 14.25-4.81-19.23-57z"/><path class="st0" d="m46.56 82.71 4.81 14.25 42.75-14.42 14.42 42.75 14.25-4.81-19.23-57z"/><path style="fill:#825ff5" d="m56 63.65 4.81 14.25 42.75-14.42 14.42 42.75 14.25-4.81-19.23-57z"/><path style="fill:#7047f5" d="m74.89 25.54 4.8 14.25 42.76-14.43 14.42 42.75 14.25-4.8-19.23-57z"/><path class="st0" d="m103.41 63.53-14.27 4.82c.59 1.37 1.13 2.77 1.62 4.22 7.97 23.61-1.53 48.13-21.2 54.77-19.68 6.64-42.08-7.12-50.05-30.73s1.53-48.13 21.2-54.77c14.14-4.77 29.7 1 40.29 13.39l15.05-5.08C81.76 30.03 57.76 20.2 35.89 27.58 8.35 36.87-5.37 69.93 5.25 101.41c10.62 31.48 41.56 49.47 69.11 40.18 27.55-9.29 41.27-42.35 30.65-73.83-.49-1.45-1.04-2.85-1.6-4.23z"/></svg>